<svg xmlns="http://www.w3.org/2000/svg" width="300" height="72" viewBox="0 0 300 72" role="img" aria-labelledby="title desc">
  <title id="title">Parametrix logo</title>
  <desc id="desc">Parametrix wordmark with cyan shield and weather pulse brand mark.</desc>
  <defs>
    <radialGradient id="glow" cx="30%" cy="20%" r="70%">
      <stop offset="0%" stop-color="#00E5FF" stop-opacity="0.24"/>
      <stop offset="58%" stop-color="#00E5FF" stop-opacity="0"/>
    </radialGradient>
  </defs>
  <rect x="8" y="8" width="56" height="56" rx="14" fill="#071316"/>
  <rect x="8" y="8" width="56" height="56" rx="14" fill="url(#glow)"/>
  <path d="M36 14.5 50.5 20v14.4c0 9.9-6 18.2-14.5 22.6-8.5-4.4-14.5-12.7-14.5-22.6V20L36 14.5Z" fill="#071316" stroke="#7DD3FC" stroke-linecap="round" stroke-linejoin="round" stroke-width="3.5"/>
  <path d="M30 46V27h9c5.1 0 8.4 3.3 8.4 7.7 0 4.3-3.3 7.7-8.4 7.7h-9" stroke="#00E5FF" stroke-linecap="round" stroke-linejoin="round" stroke-width="4"/>
  <path d="M24 38.5h6.2l3-6.3 4.9 12.4 3.5-7.2h6.2" stroke="#E0F7FF" stroke-linecap="round" stroke-linejoin="round" stroke-width="3"/>
  <path d="M42.5 24c1.5-2.3 4.2-3.4 7.3-2.7" stroke="#00E5FF" stroke-linecap="round" stroke-width="2.7"/>
  <text x="82" y="45" fill="#F5FBFF" font-family="Inter, ui-sans-serif, system-ui, -apple-system, BlinkMacSystemFont, Segoe UI, sans-serif" font-size="30" font-weight="700" letter-spacing="0.2">Parametrix</text>
</svg>
